Coordinates
version=1
nRows=19
nColumns=24
inDegrees=yes

Units are S.I. units (second, meters, Newtons, ...)
Angles are in degrees.

endheader
time	pelvis_tilt	pelvis_list	pelvis_rotation	pelvis_tx	pelvis_ty	pelvis_tz	hip_flexion_r	hip_adduction_r	hip_rotation_r	knee_angle_r	ankle_angle_r	subtalar_angle_r	mtp_angle_r	hip_flexion_l	hip_adduction_l	hip_rotation_l	knee_angle_l	ankle_angle_l	subtalar_angle_l	mtp_angle_l	lumbar_extension	lumbar_bending	lumbar_rotation
      3.63000000	     -0.93895182	     -2.81200375	     -9.23250099	     -0.81871194	      0.90899448	      0.24314967	    -10.59249453	      8.31399587	     11.18831841	    -23.96574377	     25.95546955	     -3.74904884	      0.00000000	     29.39077548	     -2.21947655	     -5.81718732	     -9.93516513	     10.41847851	    -10.53653915	      0.00000000	    -11.45284152	      0.93369050	      1.62333034
      3.63500000	     -0.93686175	     -2.59790390	     -9.22768616	     -0.81072187	      0.90792814	      0.24318998	    -10.56858594	      7.95399693	     10.60592603	    -24.90296490	     25.83184039	     -2.90376912	      0.00000000	     29.58751003	     -1.94845100	     -5.77061118	    -10.98298757	     10.09277951	    -10.94827420	      0.00000000	    -11.30999677	      0.61632232	      1.56011798
      3.64000000	     -0.94292094	     -2.33370974	     -9.21241042	     -0.80271034	      0.90692343	      0.24321185	    -10.47361675	      7.53326907	      9.96043225	    -25.92797905	     25.63958690	     -2.01374004	      0.00000000	     29.79041297	     -1.62430973	     -5.72108031	    -12.03765258	      9.65066632	    -11.37723949	      0.00000000	    -11.14932767	      0.24057111	      1.47735191
      3.64500000	     -0.96263654	     -2.01710936	     -9.17687526	     -0.79471101	      0.90598786	      0.24319372	    -10.29137765	      7.05175623	      9.25505775	    -27.05547219	     25.36460103	     -1.07655626	      0.00000000	     30.00709413	     -1.24034804	     -5.65931073	    -13.08152409	      9.08572213	    -11.82120967	      0.00000000	    -10.96880626	     -0.19422604	      1.36187392
      3.65000000	     -0.99636410	     -1.64111893	     -9.12367785	     -0.78671782	      0.90513364	      0.24314789	    -10.02292521	      6.50053382	      8.49435398	    -28.27864012	     24.99103753	     -0.11566923	      0.00000000	     30.24466467	     -0.79338235	     -5.60380477	    -14.11990379	      8.43335353	    -12.25845024	      0.00000000	    -10.76533837	     -0.69562691	      1.21634464
      3.65500000	     -1.04834722	     -1.21272894	     -9.06409822	     -0.77877836	      0.90433453	      0.24305993	     -9.65090958	      5.87839924	      7.67030908	    -29.61735753	     24.54006955	      0.88875585	      0.00000000	     30.51751738	     -0.29008241	     -5.51564286	    -15.16901187	      7.73030700	    -12.73473027	      0.00000000	    -10.54214737	     -1.25418930	      1.03955835
      3.66000000	     -1.11428931	     -0.72528884	     -8.98047970	     -0.77085617	      0.90364296	      0.24295421	     -9.19432030	      5.19046533	      6.83097134	    -31.04696654	     23.94500015	      1.87949978	      0.00000000	     30.81359634	      0.27610649	     -5.44007267	    -16.21562402	      7.00344194	    -13.14778118	      0.00000000	    -10.29782319	     -1.88236289	      0.83385973
      3.66500000	     -1.20702336	     -0.22213470	     -8.88524183	     -0.76302696	      0.90303015	      0.24277744	     -8.63175041	      4.47038759	      5.97517687	    -32.58126407	     23.21155235	      2.90133393	      0.00000000	     31.15030814	      0.87190842	     -5.29001080	    -17.27304908	      6.22939981	    -13.62247917	      0.00000000	    -10.03857350	     -2.51785404	      0.64701300
      3.67000000	     -1.29662012	      0.34151480	     -8.78436733	     -0.75514424	      0.90250540	      0.24263737	     -8.01298316	      3.67933152	      5.13917261	    -34.19310402	     22.32480903	      3.85165154	      0.00000000	     31.49408695	      1.52015829	     -5.20205806	    -18.35703940	      5.58042413	    -13.96966329	      0.00000000	     -9.76383232	     -3.23290166	      0.41056891
      3.67500000	     -1.38257709	      0.92345519	     -8.67954466	     -0.74727949	      0.90205438	      0.24250063	     -7.33935040	      2.85858265	      4.34116613	    -35.88180184	     21.28947469	      4.75575520	      0.00000000	     31.84391564	      2.18796104	     -5.11841283	    -19.46756829	      5.02159636	    -14.26619555	      0.00000000	     -9.49525591	     -3.97398953	      0.16730777
      3.68000000	     -1.46625669	      1.51104943	     -8.57856025	     -0.73940479	      0.90167322	      0.24235761	     -6.61526489	      2.01913687	      3.59255971	    -37.63530645	     20.08690297	      5.60119499	      0.00000000	     32.18532814	      2.86379653	     -5.02766102	    -20.58094884	      4.55709002	    -14.53822965	      0.00000000	     -9.22677036	     -4.71969284	     -0.07888823
      3.68500000	     -1.52257352	      2.10061254	     -8.48202030	     -0.73152100	      0.90136446	      0.24221764	     -5.87438955	      1.16500344	      2.90600449	    -39.43899346	     18.74087363	      6.37264626	      0.00000000	     32.49072467	      3.54204004	     -4.95777140	    -21.69660813	      4.22782469	    -14.74288418	      0.00000000	     -8.99147945	     -5.47064890	     -0.33809709
      3.69000000	     -1.56751960	      2.66212688	     -8.38283406	     -0.72364562	      0.90112903	      0.24206595	     -5.10440207	      0.33462254	      2.28773693	    -41.28043644	     17.21775344	      7.06080875	      0.00000000	     32.75372364	      4.20107709	     -4.88950160	    -22.76712411	      3.97987830	    -14.96063381	      0.00000000	     -8.78037699	     -6.19120123	     -0.55521425
      3.69500000	     -1.54242651	      3.22437826	     -8.27559107	     -0.71566944	      0.90104196	      0.24197602	     -4.39772829	     -0.49106125	      1.74789177	    -43.10360230	     15.51883160	      7.54639222	      0.00000000	     32.89985503	      4.86257981	     -4.88000124	    -23.78577133	      3.92319244	    -15.03916554	      0.00000000	     -8.63751320	     -6.92759804	     -0.83243978
      3.70000000	     -1.57183362	      3.74997290	     -8.20509751	     -0.70788710	      0.90084204	      0.24171002	     -3.54739255	     -1.30927582	      1.27516445	    -45.02072393	     13.81253686	      8.11084004	      0.00000000	     33.08651106	      5.49747553	     -4.81689799	    -24.75553577	      3.84989616	    -15.32481086	      0.00000000	     -8.47102138	     -7.58182733	     -1.00312951
      3.70500000	     -1.55594005	      4.25207581	     -8.11794267	     -0.69999846	      0.90078773	      0.24148183	     -2.74853436	     -2.08794651	      0.87375473	    -46.88100281	     11.94075302	      8.44568794	      0.00000000	     33.15675367	      6.11727492	     -4.80167137	    -25.62886244	      3.94663853	    -15.51028537	      0.00000000	     -8.34422154	     -8.21553064	     -1.19901087
      3.71000000	     -1.51117800	      4.73372558	     -8.02617468	     -0.69215880	      0.90079754	      0.24122167	     -1.95469075	     -2.84005210	      0.53769072	    -48.72486706	     10.02602529	      8.63393910	      0.00000000	     33.15245529	      6.72525288	     -4.81405913	    -26.42856293	      4.15276988	    -15.65509715	      0.00000000	     -8.26847262	     -8.82031858	     -1.40121966
      3.71500000	     -1.39809788	      5.16459523	     -7.92168643	     -0.68435964	      0.90095339	      0.24097723	     -1.22893465	     -3.52321872	      0.25497191	    -50.51338676	      8.05585619	      8.57738647	      0.00000000	     33.01566289	      7.30191258	     -4.82643526	    -27.14187001	      4.50926699	    -15.73195222	      0.00000000	     -8.29648430	     -9.37536686	     -1.61956650
      3.72000000	     -1.38367707	      5.61831028	     -7.82471691	     -0.67660198	      0.90098069	      0.24057939	     -0.35044981	     -4.23910646	      0.01570285	    -52.31172054	      6.17645563	      8.50373216	      0.00000000	     32.94769419	      7.89569301	     -4.87757979	    -27.77200581	      4.86719715	    -15.87541544	      0.00000000	     -8.20297675	     -9.90835885	     -1.80193459
